<svg xmlns="http://www.w3.org/2000/svg" width="38" height="38" fill="none"><path fill="#3DDC84" d="M0 12.6667C0 8.2329 0 6.016.8629 4.3226A7.9166 7.9166 0 0 1 4.3226.8629C6.016 0 8.2329 0 12.6667 0h12.6666c4.4338 0 6.6507 0 8.3441.8629a7.9167 7.9167 0 0 1 3.4597 3.4597C38 6.016 38 8.2329 38 12.6667v12.6666c0 4.4338 0 6.6507-.8629 8.3441a7.9168 7.9168 0 0 1-3.4597 3.4597C31.984 38 29.7671 38 25.3333 38H12.6667c-4.4338 0-6.6507 0-8.3441-.8629a7.9167 7.9167 0 0 1-3.4597-3.4597C0 31.984 0 29.7671 0 25.3333V12.6667Z"/><circle cx="19" cy="19" r="11" fill="#fff"/><path fill="#3DDC84" fill-rule="evenodd" d="M15.1538 19c0 2.1242 1.722 3.8462 3.8462 3.8462s3.8462-1.722 3.8462-3.8462H25c0 3.3137-2.6863 6-6 6s-6-2.6863-6-6h2.1538Z" clip-rule="evenodd"/></svg>